# xmcd
#
# Track frame offsets: 
#        150
#        13319
#        24870
#        37684
#        52461
#        64212
#        73410
#        85087
#        98984
#        111173
#        124802
#        138749
#
# Disc length: 2003 seconds
#
# Revision: 2
# Processed by: cddbd v1.5.2PL0 Copyright (c) Steve Scherf et al.
# Submitted via: ExactAudioCopyFreeDBPlugin 1.0
#
DISCID=af07d10c
DTITLE=Sam and Dave - Sam and Dave:  Collectables Classics [box set]
DYEAR=2006
DGENRE=Soul
TTITLE0=You Got Me Hummin'
TTITLE1=Said I Wasn't Gonna Tell Nobody
TTITLE2=That's the Way It's Gotta Be
TTITLE3=When Something is Wrong with My Baby
TTITLE4=Soothe Me
TTITLE5=Just Can't Seem to Get Enough
TTITLE6=Sweet Pains
TTITLE7=I'm Your Puppet
TTITLE8=Sleep Good Tonight
TTITLE9=I Don't Need Nobody (To Tell Me 'Bout My Baby)
TTITLE10=Home at Last
TTITLE11=Use Me
EXTD=1966
EXTT0=
EXTT1=
EXTT2=
EXTT3=
EXTT4=
EXTT5=
EXTT6=
EXTT7=
EXTT8=
EXTT9=
EXTT10=
EXTT11=
PLAYORDER=
